<svg width="36" height="37" viewBox="0 0 36 37" fill="none" xmlns="http://www.w3.org/2000/svg">
<path d="M36 6.125C36 7.39062 34.9945 8.55781 33.3 9.5C31.2539 10.632 28.2023 11.4336 24.7008 11.6727C24.4406 11.5461 24.1805 11.4266 23.9062 11.3211C21.1359 10.1609 17.4516 9.5 13.5 9.5C12.9164 9.5 12.3469 9.51406 11.7773 9.54219L11.7 9.5C10.0055 8.55781 9 7.39062 9 6.125C9 3.01719 15.0469 0.5 22.5 0.5C29.9531 0.5 36 3.01719 36 6.125ZM11.2992 11.8273C12.0164 11.7781 12.7547 11.75 13.5 11.75C17.8734 11.75 21.7547 12.6148 24.2227 13.9578C25.9664 14.907 27 16.0883 27 17.375C27 17.6562 26.9508 17.9305 26.8523 18.1977C26.5289 19.1258 25.657 19.9766 24.3914 20.6938C24.3844 20.7008 24.3703 20.7008 24.3633 20.7078C24.3422 20.7219 24.3211 20.7289 24.3 20.743C21.8391 22.107 17.9156 22.993 13.5 22.993C9.30937 22.993 5.56172 22.1984 3.07969 20.9469C2.94609 20.8836 2.81953 20.8133 2.69297 20.743C1.00547 19.8078 0 18.6406 0 17.375C0 14.9281 3.75469 12.8398 9 12.0734C9.73828 11.968 10.5047 11.8836 11.2992 11.8273ZM29.25 17.375C29.25 15.8352 28.5047 14.5695 27.5555 13.6203C29.5453 13.3109 31.3664 12.8188 32.9133 12.1789C34.0594 11.7008 35.1281 11.1102 36 10.3859V12.875C36 14.232 34.8398 15.4836 32.9203 16.4539C31.8938 16.9742 30.6422 17.4172 29.2359 17.7547C29.243 17.6281 29.25 17.5086 29.25 17.382V17.375ZM27 24.125C27 25.3906 25.9945 26.5578 24.3 27.5C24.1734 27.5703 24.0469 27.6336 23.9133 27.7039C21.4383 28.9555 17.6906 29.75 13.5 29.75C9.08438 29.75 5.16094 28.8641 2.7 27.5C1.00547 26.5578 0 25.3906 0 24.125V21.6359C0.878906 22.3602 1.94063 22.9508 3.08672 23.4289C5.86406 24.5891 9.54844 25.25 13.5 25.25C17.4516 25.25 21.1359 24.5891 23.9133 23.4289C24.4617 23.2039 24.9891 22.9438 25.4883 22.6625C25.9172 22.4234 26.318 22.1562 26.6977 21.875C26.8031 21.7977 26.9016 21.7133 27 21.6359V21.875V22.2758V24.125ZM29.25 24.125V21.875V20.0539C30.5859 19.7586 31.8164 19.3859 32.9133 18.9289C34.0594 18.4508 35.1281 17.8602 36 17.1359V19.625C36 20.3633 35.6484 21.1016 34.9523 21.7977C33.8063 22.9438 31.7883 23.8859 29.2359 24.4977C29.243 24.3781 29.25 24.2516 29.25 24.125ZM13.5 32C17.4516 32 21.1359 31.3391 23.9133 30.1789C25.0594 29.7008 26.1281 29.1102 27 28.3859V30.875C27 33.9828 20.9531 36.5 13.5 36.5C6.04688 36.5 0 33.9828 0 30.875V28.3859C0.878906 29.1102 1.94063 29.7008 3.08672 30.1789C5.86406 31.3391 9.54844 32 13.5 32Z" fill="#059669"/>
</svg>
