<svg width="18" height="14" viewBox="0 0 18 14" fill="none" xmlns="http://www.w3.org/2000/svg">
<path d="M15.8538 7.07001C17.3987 5.52509 17.3987 3.02314 15.8538 1.47822C14.4866 0.11103 12.3319 -0.0667042 10.7597 1.05712L10.7159 1.0872C10.3222 1.36884 10.2319 1.91572 10.5136 2.30673C10.7952 2.69775 11.3421 2.79072 11.7331 2.50908L11.7769 2.479C12.6546 1.85283 13.855 1.95126 14.6151 2.71416C15.4765 3.57548 15.4765 4.97001 14.6151 5.83134L11.5472 8.90478C10.6858 9.76611 9.29131 9.76611 8.42998 8.90478C7.66709 8.14189 7.56865 6.9415 8.19482 6.0665L8.2249 6.02275C8.50654 5.629 8.41357 5.08212 8.02256 4.80322C7.63154 4.52431 7.08193 4.61455 6.80303 5.00556L6.77295 5.04931C5.64639 6.61884 5.82412 8.77353 7.19131 10.1407C8.73623 11.6856 11.2382 11.6856 12.7831 10.1407L15.8538 7.07001ZM1.646 6.43017C0.101074 7.97509 0.101074 10.477 1.646 12.022C3.01318 13.3892 5.16787 13.5669 6.74014 12.4431L6.78389 12.413C7.17764 12.1313 7.26787 11.5845 6.98623 11.1935C6.70459 10.8024 6.15771 10.7095 5.7667 10.9911L5.72295 11.0212C4.84521 11.6474 3.64482 11.5489 2.88467 10.786C2.02334 9.92197 2.02334 8.52744 2.88467 7.66611L5.95264 4.59541C6.81396 3.73408 8.2085 3.73408 9.06982 4.59541C9.83272 5.3583 9.93115 6.55869 9.30498 7.43642L9.2749 7.48017C8.99326 7.87392 9.08623 8.4208 9.47725 8.6997C9.86826 8.97861 10.4179 8.88837 10.6968 8.49736L10.7269 8.45361C11.8534 6.88134 11.6757 4.72666 10.3085 3.35947C8.76357 1.81455 6.26162 1.81455 4.7167 3.35947L1.646 6.43017Z" fill="#059669"/>
</svg>
