<svg width="21" height="24" viewBox="0 0 21 24" fill="none" xmlns="http://www.w3.org/2000/svg">
<g clip-path="url(#clip0_71_294)">
<g clip-path="url(#clip1_71_294)">
<path d="M16.3781 2.09056C16.6547 1.44837 16.4484 0.698373 15.8812 0.285873C15.3141 -0.126627 14.5406 -0.0891267 14.0109 0.370248L2.01093 10.8702C1.54218 11.2827 1.37343 11.9437 1.59374 12.5249C1.81405 13.1062 2.37655 13.4999 2.99999 13.4999H8.22655L4.62186 21.9093C4.3453 22.5515 4.55155 23.3015 5.11874 23.714C5.68593 24.1265 6.45937 24.089 6.98905 23.6296L18.9891 13.1296C19.4578 12.7171 19.6266 12.0562 19.4062 11.4749C19.1859 10.8937 18.6281 10.5046 18 10.5046H12.7734L16.3781 2.09056Z" fill="#1F2937"/>
</g>
</g>
<defs>
<clipPath id="clip0_71_294">
<rect width="21" height="24" fill="white"/>
</clipPath>
<clipPath id="clip1_71_294">
<path d="M0 0H21V24H0V0Z" fill="white"/>
</clipPath>
</defs>
</svg>
