<svg width="11" height="15" viewBox="0 0 11 15" fill="none" xmlns="http://www.w3.org/2000/svg">
<path d="M5.89805 14.4C7.30078 12.6445 10.5 8.38984 10.5 6C10.5 3.10156 8.14844 0.75 5.25 0.75C2.35156 0.75 0 3.10156 0 6C0 8.38984 3.19922 12.6445 4.60195 14.4C4.93828 14.8184 5.56172 14.8184 5.89805 14.4ZM5.25 4.25C5.71413 4.25 6.15925 4.43437 6.48744 4.76256C6.81563 5.09075 7 5.53587 7 6C7 6.46413 6.81563 6.90925 6.48744 7.23744C6.15925 7.56563 5.71413 7.75 5.25 7.75C4.78587 7.75 4.34075 7.56563 4.01256 7.23744C3.68437 6.90925 3.5 6.46413 3.5 6C3.5 5.53587 3.68437 5.09075 4.01256 4.76256C4.34075 4.43437 4.78587 4.25 5.25 4.25Z" fill="#6B7280"/>
</svg>
